<svg viewBox="0 0 240 200" xmlns="http://www.w3.org/2000/svg">

  <!-- HEAD / BEAK (small triangle, leftmost) -->
  <polygon points="24,87 47,76 47,100" fill="#1B3860"/>

  <!-- LEFT WING (large solid triangle, goes up-left) -->
  <polygon points="49,87 68,20 134,65" fill="#1B3860"/>

  <!-- LEFT BODY (below left wing) -->
  <polygon points="70,88 134,65 94,148" fill="#1B3860"/>

  <!-- RIGHT WING — section 1 (left) -->
  <polygon points="136,65 136,40 162,30 163,56" fill="#1B3860"/>

  <!-- RIGHT WING — section 2 (middle) -->
  <polygon points="165,55 163,30 189,22 191,47" fill="#1B3860"/>

  <!-- RIGHT WING — section 3 (right) -->
  <polygon points="193,46 190,22 214,30 210,54" fill="#1B3860"/>

  <!-- RIGHT BODY (below right wing sections) -->
  <polygon points="136,66 165,56 150,152 122,142" fill="#1B3860"/>

  <!-- LEFT TAIL -->
  <polygon points="94,150 74,190 102,190" fill="#1B3860"/>

  <!-- RIGHT TAIL -->
  <polygon points="124,144 150,154 140,196 114,184" fill="#1B3860"/>

</svg>
